<?xml version="1.0" encoding="UTF-8"?>
<svg id="Layer_1" data-name="Layer 1" xmlns="http://www.w3.org/2000/svg" viewBox="0 0 3000 3000">
  <path d="m1778.24,1080.55c0,146.86-37.75,284.91-104.07,404.96l-16.23,28.12-120.18,208.18-154.56,267.73-82.1,142.19-139.6-241.87-97.02-168.01,136.45-236.33,100.21-173.54,10.25-17.83c6.56-27.99,10-57.18,10-87.14,0-181.41-126.36-333.27-295.89-372.46-27.75-6.39-56.69-9.8-86.4-9.8-124.52,0-235.15,59.56-304.95,151.74-48.53,64.1-77.3,143.91-77.3,230.51,0,29.76,3.4,58.74,9.84,86.57l111.08,192.36,250.35,433.65,11.11,19.22,236.62,409.88-236.62,409.88-236.62-409.88-478.94-829.47-22.99-39.84c-64.23-118.62-100.67-254.45-100.67-398.81,0-92.88,15.08-182.23,43-265.76C254.15,481.6,568.57,241.45,939.1,241.45c349.71,0,649.45,213.87,775.49,518,13.85,33.36,25.58,67.75,35.04,103.13,18.65,69.51,28.61,142.56,28.61,217.97Z"/>
  <path d="m1674.17,1485.51c-5.21,9.51-10.62,18.85-16.23,28.12l16.23-28.12Z"/>
  <path d="m2213.61,1877.19c-211.13,0-382.25,171.12-382.25,382.25,0,29.26,3.28,57.79,9.55,85.17,38.69,170.14,190.84,297.08,372.7,297.08s334.01-126.94,372.7-297.08c6.27-27.38,9.55-55.91,9.55-85.17,0-211.13-171.12-382.25-382.25-382.25Zm129.27,467.42c-27.67,41.97-75.25,69.64-129.27,69.64s-101.61-27.67-129.28-69.64c-16.15-24.43-25.54-53.69-25.54-85.17,0-85.5,69.31-154.81,154.81-154.81s154.81,69.31,154.81,154.81c0,31.48-9.39,60.74-25.54,85.17Z"/>
  <path d="m2888.76,1969.37l-14.19-50.35c-39.48,5.28-69.94,39.1-69.94,80.03v243.98c0,7.27.96,14.31,2.76,21,75.96-71.98,112.8-183.07,81.37-294.66Z"/>
  <path d="m2726.65,1394.27c-88.62-314.5-375.53-531.68-702.28-531.68h-250.15c18.65,69.5,28.61,142.55,28.61,217.96,0,146.86-37.75,284.91-104.07,404.97l-16.23,28.1-120.18,208.18-154.56,267.73-24.59,42.59v17.29c0,163.06,132.14,295.2,295.15,295.2h120.58c-5.61-27.51-8.56-55.99-8.56-85.16,0-233.77,189.48-423.24,423.24-423.24s423.23,189.47,423.23,423.24c0,28.85-2.86,57.01-8.4,84.21,54.07-4.21,103.33-22.86,144.61-51.63,2.27-1.58,4.52-3.21,6.74-4.85-8.31-12.68-13.14-27.86-13.14-44.15v-243.98c0-44.59,36.16-80.76,80.76-80.76h26.96l-147.72-524.02Zm-289.48,198.8c-4.56,46.43-43.67,85.08-93.97,85.08h-296.12c-52.11,0-94.36-42.24-94.36-94.35v-285.06c0-52.11,42.25-94.36,94.36-94.36h215.77c42.25,0,79.35,28.09,90.81,68.76l80.36,285.06c3.32,11.79,4.26,23.56,3.15,34.87Z"/>
</svg>