<?xml version="1.0" encoding="UTF-8"?>
<svg id="Layer_1" data-name="Layer 1" xmlns="http://www.w3.org/2000/svg" viewBox="0 0 200 200">
  <defs>
    <style>
      .cls-1 {
        fill: #1e6bbb;
      }
    </style>
  </defs>
  <path class="cls-1" d="m119.68,70.34c0,10.39-2.67,20.15-7.36,28.64l-1.15,1.99-8.5,14.72-10.93,18.93-5.81,10.05-9.87-17.1-6.86-11.88,9.65-16.71,7.09-12.27.72-1.26c.46-1.98.71-4.04.71-6.16,0-12.83-8.94-23.57-20.92-26.34-1.96-.45-4.01-.69-6.11-.69-8.81,0-16.63,4.21-21.56,10.73-3.43,4.53-5.47,10.18-5.47,16.3,0,2.1.24,4.15.7,6.12l7.85,13.6,17.7,30.67.79,1.36,16.73,28.98-16.73,28.98-16.73-28.98L9.74,101.36l-1.63-2.82c-4.54-8.39-7.12-17.99-7.12-28.2,0-6.57,1.07-12.89,3.04-18.79C11.9,27.98,34.13,11,60.34,11c24.73,0,45.93,15.12,54.84,36.63.98,2.36,1.81,4.79,2.48,7.29,1.32,4.92,2.02,10.08,2.02,15.41Z"/>
  <path class="cls-1" d="m112.32,98.98c-.37.67-.75,1.33-1.15,1.99l1.15-1.99Z"/>
  <path class="cls-1" d="m150.46,126.67c-14.93,0-27.03,12.1-27.03,27.03,0,2.07.23,4.09.68,6.02,2.74,12.03,13.5,21.01,26.36,21.01s23.62-8.98,26.36-21.01c.44-1.94.68-3.95.68-6.02,0-14.93-12.1-27.03-27.03-27.03Zm9.14,33.05c-1.96,2.97-5.32,4.92-9.14,4.92s-7.19-1.96-9.14-4.92c-1.14-1.73-1.81-3.8-1.81-6.02,0-6.05,4.9-10.95,10.95-10.95s10.95,4.9,10.95,10.95c0,2.23-.66,4.3-1.81,6.02Z"/>
  <path class="cls-1" d="m198.21,133.19l-1-3.56c-2.79.37-4.95,2.76-4.95,5.66v17.25c0,.51.07,1.01.2,1.48,5.37-5.09,7.98-12.95,5.75-20.84Z"/>
  <path class="cls-1" d="m186.74,92.52c-6.27-22.24-26.56-37.6-49.66-37.6h-17.69c1.32,4.91,2.02,10.08,2.02,15.41,0,10.39-2.67,20.15-7.36,28.64l-1.15,1.99-8.5,14.72-10.93,18.93-1.74,3.01v1.22c0,11.53,9.34,20.87,20.87,20.87h8.53c-.4-1.95-.61-3.96-.61-6.02,0-16.53,13.4-29.93,29.93-29.93s29.93,13.4,29.93,29.93c0,2.04-.2,4.03-.59,5.95,3.82-.3,7.31-1.62,10.23-3.65.16-.11.32-.23.48-.34-.59-.9-.93-1.97-.93-3.12v-17.25c0-3.15,2.56-5.71,5.71-5.71h1.91l-10.45-37.06Zm-20.47,14.06c-.32,3.28-3.09,6.02-6.65,6.02h-20.94c-3.68,0-6.67-2.99-6.67-6.67v-20.16c0-3.68,2.99-6.67,6.67-6.67h15.26c2.99,0,5.61,1.99,6.42,4.86l5.68,20.16c.23.83.3,1.67.22,2.47Z"/>
</svg>